<svg xmlns="http://www.w3.org/2000/svg" viewBox="0 0 1600 1000" preserveAspectRatio="none">
<defs><linearGradient id="g" x1="0" y1="0" x2="1" y2="1"><stop stop-color="#ffd66b"/><stop offset=".25" stop-color="#68f8ff"/><stop offset=".55" stop-color="#ff67d8"/><stop offset=".8" stop-color="#68f8ff"/><stop offset="1" stop-color="#ffd66b"/></linearGradient><filter id="gl"><feGaussianBlur stdDeviation="4"/></filter></defs>
<rect x="18" y="18" width="1564" height="964" rx="54" fill="none" stroke="url(#g)" stroke-width="18" filter="url(#gl)" opacity=".5"/>
<rect x="28" y="28" width="1544" height="944" rx="46" fill="none" stroke="url(#g)" stroke-width="5"/>
<path d="M90 45q80 70 160 0M1350 45q80 70 160 0M90 955q80-70 160 0M1350 955q80-70 160 0" fill="none" stroke="#ffd66b" stroke-width="6"/>
<g fill="#ff79d9" stroke="#68f8ff" stroke-width="3"><path d="M800 22l18 24-18 24-18-24z"/><path d="M800 930l18 24-18 24-18-24z"/></g>
<g fill="none" stroke="#68f8ff" stroke-width="3"><circle cx="48" cy="500" r="18"/><circle cx="1552" cy="500" r="18"/></g>
</svg>
