<svg xmlns="http://www.w3.org/2000/svg" viewBox="0 0 800 520">
<defs><linearGradient id="g" x1="0" y1="0" x2="1" y2="1"><stop stop-color="#0a1737"/><stop offset=".55" stop-color="#172b6d"/><stop offset="1" stop-color="#7b2f83"/></linearGradient><radialGradient id="s"><stop stop-color="#fff"/><stop offset="1" stop-color="#0a1737" stop-opacity="0"/></radialGradient></defs>
<rect width="800" height="520" rx="42" fill="url(#g)"/><circle cx="640" cy="90" r="110" fill="url(#s)" opacity=".45"/><circle cx="120" cy="430" r="150" fill="url(#s)" opacity=".25"/>
<path d="M0 430L180 210L280 340L405 145L610 430Z" fill="#101e4c" stroke="#63e8ff" stroke-width="6"/><path d="M180 210L225 275L145 275ZM405 145L475 245L345 245Z" fill="#e8f6ff"/><path d="M0 430Q200 370 400 430T800 420V520H0Z" fill="#08172f"/><path d="M85 100Q150 70 215 100" fill="none" stroke="#ffd166" stroke-width="6"/><circle cx="640" cy="115" r="42" fill="#ff79c8" opacity=".6"/><path d="M35 35H765V485H35Z" fill="none" stroke="#63e8ff" stroke-width="5" opacity=".8"/><path d="M52 52H748V468H52Z" fill="none" stroke="#ff79c8" stroke-width="2" opacity=".75"/>
<text x="400" y="68" text-anchor="middle" fill="#fff" font-family="sans-serif" font-size="30" font-weight="700">آوای نوا • کوهستان</text></svg>